# xmcd
#
# Track frame offsets:
#	151
#	20800
#	36033
#	44372
#	60975
#	71290
#	85633
#	102070
#	112739
#	130478
#	142081
#	158214
#
# Disc length: 2273 seconds
#
# Revision: 0
# Processed by: cddbd v1.4PL0 Copyright (c) Steve Scherf et al.
# Submitted via: EasyCDDAExtractor 4.6.9.1
#
DISCID=9708df0c
DTITLE=Various Artist - Southern Celebration - Vol 3
DYEAR=1900
DGENRE=gospel
TTITLE0=Hoppers - Go Ask
TTITLE1=Cathedrals - Jesus Saves
TTITLE2=Bishops - Travelin' Shoes
TTITLE3=Florida Boys - Tears are a Language
TTITLE4=Homeland Quartet - At Calvary
TTITLE5=Speaking of JD Sumner
TTITLE6=Walt Mills - Where the Timbers Cross
TTITLE7=Speers - Didn't It Rain
TTITLE8=John Hagee Family - Farther Along
TTITLE9=Anthony Burger - New Born Feeling
TTITLE10=Ann Downing - Without Him
TTITLE11=Cathedrals - Oh, Come Along
EXTD=Diamante Music Group\n
EXTT0=
EXTT1=
EXTT2=
EXTT3=
EXTT4=
EXTT5=
EXTT6=
EXTT7=
EXTT8=
EXTT9=
EXTT10=
EXTT11=
PLAYORDER=
